<svg width="14" height="14" viewBox="0 0 14 14" fill="none" xmlns="http://www.w3.org/2000/svg">
<g clip-path="url(#clip0_2_1073)">
<path d="M4.98853 6.61055L4.98839 6.61044C4.16927 5.99673 3.6377 5.02009 3.6377 3.91789C3.6377 2.10414 5.07441 0.625807 6.87105 0.558021L6.87151 0.555078H7.00007C8.8565 0.555078 10.3614 2.06108 10.3614 3.91738C10.3614 5.01907 9.82984 5.99554 9.01137 6.60928C9.01135 6.6093 9.01133 6.60931 9.01131 6.60933L8.83119 6.74454L9.04526 6.81493C9.04527 6.81494 9.04528 6.81494 9.04529 6.81494C9.86986 7.0859 10.6378 7.52139 11.3016 8.10119L11.3016 8.10123C11.4683 8.24701 11.4847 8.49103 11.3394 8.65738L11.3391 8.65771C11.1928 8.82407 10.949 8.83893 10.7832 8.69407L10.8768 8.58693L10.7832 8.69407C9.77101 7.80971 8.48192 7.30929 7.13938 7.27637H7.12755L7.12253 7.27655C7.08105 7.27808 7.03817 7.27965 6.99847 7.27965C6.95957 7.27965 6.91849 7.27814 6.87805 7.27665L6.87048 7.27637H6.85921C4.2064 7.34117 1.91042 9.24298 1.36811 11.847L1.36805 11.8472C1.32766 12.0394 1.37692 12.2407 1.50076 12.3935L1.51889 12.4159C1.60014 12.5065 1.76399 12.6327 2.0011 12.6327H6.51288C6.73376 12.6327 6.90679 12.8062 6.90679 13.0272C6.90679 13.2494 6.73309 13.4211 6.51288 13.4211H2.0011C1.56651 13.4211 1.16341 13.229 0.889419 12.8921L0.889394 12.8921C0.613619 12.5529 0.507965 12.1164 0.597528 11.6874L4.98853 6.61055ZM4.98853 6.61055L5.16894 6.74537M4.98853 6.61055L5.16894 6.74537M10.697 12.9019L10.7106 12.9156L10.7147 12.9197L10.802 13.0069C10.8006 13.0081 10.799 13.0094 10.7972 13.0109C10.7942 13.0132 10.7854 13.02 10.773 13.0264C10.7663 13.0296 10.7493 13.0361 10.7388 13.039C10.7223 13.0419 10.6807 13.0411 10.6564 13.035C10.6422 13.0285 10.6241 13.0151 10.6076 13.0003C10.6387 12.9702 10.668 12.9381 10.6953 12.9041L10.697 12.9019ZM10.697 12.9019L10.7101 12.9117L10.7445 12.9376L10.7446 12.9376L10.817 12.9919L10.816 12.9932L10.8179 12.9911L10.8196 12.989C10.8199 12.9887 10.8203 12.9883 10.8206 12.9879L10.6994 12.8992C10.6992 12.8996 10.6989 12.8999 10.6986 12.9003L10.697 12.9019ZM5.16894 6.74537L4.95431 6.81603C4.95431 6.81603 4.95431 6.81603 4.95431 6.81603C4.19101 7.0673 3.47401 7.4585 2.84696 7.97413C1.69738 8.91944 0.899247 10.239 0.597542 11.6873L5.16894 6.74537ZM4.42385 4.03535V3.91737C4.42385 2.50192 5.57969 1.34535 6.9948 1.3434L6.9948 1.34341H6.9989C8.41566 1.34341 9.57344 2.50022 9.57344 3.91739C9.57344 5.29072 8.4875 6.42062 7.12975 6.48834L7.12974 6.48806L7.12066 6.48907L7.11915 6.48923C7.07777 6.48815 7.03785 6.4876 6.99941 6.4876C6.97369 6.4876 6.94592 6.48811 6.91912 6.48859C6.90581 6.48884 6.89274 6.48907 6.88028 6.48924H6.87975L6.87816 6.48907L6.87819 6.48879L6.86903 6.48833C5.60295 6.42549 4.60505 5.4246 4.47611 4.17001L4.46227 4.03535H4.42385ZM13.0571 8.81985L13.0491 8.8118L12.9733 8.82399C12.8718 8.8403 12.7811 8.89598 12.7177 8.9841L12.7176 8.98424L10.1838 12.52C10.091 12.6245 9.97141 12.6517 9.90548 12.656L9.90491 12.6561C9.83823 12.6607 9.71311 12.6488 9.60703 12.5547L9.60681 12.5544L9.59851 12.5463L7.96624 10.9539C7.80793 10.7991 7.56314 10.8036 7.40905 10.9612L7.40905 10.9612C7.25475 11.119 7.25782 11.3631 7.41495 11.5176L7.41536 11.518L9.05056 13.1137L9.05055 13.1137L9.05188 13.115C9.27474 13.3272 9.57329 13.4451 9.87939 13.4451H9.883C9.90324 13.4451 9.9267 13.4451 9.94884 13.4437V13.4438L9.95871 13.4431C10.2896 13.4213 10.6005 13.2597 10.8093 13.0017L10.8101 13.0008L10.815 12.9948L10.8201 12.9885L10.8206 12.9879L10.8208 12.9881L10.8224 12.9859L10.8225 12.9859L10.8244 12.9832L13.359 9.44395C13.3591 9.44392 13.3591 9.4439 13.3591 9.44387C13.4882 9.2637 13.4462 9.0225 13.2683 8.89387C13.2029 8.84638 13.1293 8.82329 13.0571 8.81985Z" fill="#545F7D" stroke="#545F7D" stroke-width="0.3"/>
</g>
<defs>
<clipPath id="clip0_2_1073">
<rect width="14" height="14" fill="white"/>
</clipPath>
</defs>
</svg>
