<svg width="28" height="10" viewBox="0 0 28 10" fill="none" xmlns="http://www.w3.org/2000/svg">
<path d="M0.94997 5.35634C0.994502 5.47119 1.0613 5.57666 1.14684 5.6657L4.89684 9.4157C5.07263 9.59266 5.31285 9.69344 5.56248 9.69344C5.81211 9.69344 6.05232 9.59266 6.22812 9.4157C6.40508 9.23992 6.50586 8.99969 6.50586 8.75006C6.50586 8.50043 6.40508 8.26022 6.22812 8.08442L4.07187 5.93756H26.6562C27.1742 5.93756 27.5937 5.51805 27.5937 5.00007C27.5937 4.48209 27.1742 4.06257 26.6562 4.06257H4.07187L6.22812 1.91571C6.5961 1.54773 6.5961 0.952436 6.22812 0.584457C5.86014 0.216477 5.26485 0.216477 4.89687 0.584457L1.14687 4.33446C1.06133 4.42352 0.994532 4.52899 0.95 4.64382C0.901952 4.75632 0.876173 4.87702 0.875 5.00007C0.876172 5.12311 0.901953 5.24382 0.95 5.35632L0.94997 5.35634Z" fill="#545F7D"/>
</svg>
