<svg width="14" height="14" viewBox="0 0 14 14" fill="none" xmlns="http://www.w3.org/2000/svg">
<path d="M6.08321 5.78719L6.08358 5.78756H6.125C6.84771 5.78756 7.54087 5.50029 8.05183 4.98936L7.98112 4.91865L8.05183 4.98936C8.56276 4.47843 8.85003 3.78525 8.85003 3.06253C8.85003 2.3398 8.56276 1.64666 8.05183 1.1357L7.98516 1.20237L8.05183 1.1357C7.5409 0.624767 6.84772 0.3375 6.125 0.3375C5.40227 0.3375 4.70913 0.624768 4.19817 1.1357L4.19817 1.1357C3.68724 1.64663 3.39997 2.3398 3.39997 3.06253V3.06261C3.40054 3.78533 3.68838 4.47788 4.19867 4.98876L4.19875 4.98884C4.69979 5.48932 5.37558 5.77581 6.08321 5.78719ZM4.47503 3.06264C4.47606 2.15412 5.20966 1.41789 6.11717 1.41256H6.125C6.79221 1.41256 7.39395 1.81475 7.64919 2.4309L7.64921 2.43094C7.90495 3.04762 7.76367 3.75766 7.29189 4.22942L7.3626 4.30013L7.29189 4.22942C6.8201 4.7012 6.11009 4.84248 5.49341 4.58674L5.49337 4.58672C4.87725 4.33151 4.47507 3.72982 4.47503 3.06264ZM1.36976 13.5053C1.47065 13.6062 1.60769 13.6625 1.74999 13.6625H10.5C10.6423 13.6625 10.7793 13.6062 10.8802 13.5053C10.9811 13.4044 11.0375 13.2674 11.0375 13.1251L11.0375 11.3751L11.0375 11.3749C11.0358 10.0726 10.5178 8.82381 9.5973 7.90279L9.59726 7.90274C8.67619 6.98224 7.4274 6.46427 6.12512 6.46256L6.12504 6.52404L6.125 6.46256H6.12499L6.12495 6.52302L6.12487 6.46256C4.82254 6.46423 3.57375 6.98225 2.65273 7.90274L2.65269 7.90279C1.73218 8.82385 1.21421 10.0726 1.2125 11.3749V11.3751V13.1251C1.2125 13.2674 1.26887 13.4044 1.36976 13.5053ZM9.96249 12.5876H2.2875V11.3751C2.2875 10.0042 3.01876 8.73732 4.20617 8.05196L4.2062 8.05195C5.39368 7.366 6.85619 7.366 8.04366 8.05195L8.04369 8.05196C9.23117 8.73737 9.96236 10.0043 9.96236 11.3751L9.96249 12.5876ZM12.2446 6.23469L11.6974 5.68757L12.2452 5.13976L12.2452 5.13977L12.2464 5.13861C12.4507 4.92752 12.4472 4.59228 12.2404 4.38486L12.2402 4.38463C12.0328 4.17787 11.6975 4.17433 11.4865 4.37869L11.4853 4.37982L10.9375 4.92763L10.3897 4.37982L10.3897 4.37981L10.3885 4.37869C10.1774 4.17432 9.84221 4.17788 9.63479 4.38463L9.63456 4.38486C9.42779 4.59229 9.42426 4.92752 9.62861 5.1386L9.6286 5.13861L9.62975 5.13976L10.1776 5.68757L9.62975 6.23538L9.62974 6.23537L9.62862 6.23653C9.42425 6.44762 9.4278 6.78285 9.63456 6.99028L9.63478 6.9905C9.84221 7.19727 10.1774 7.2008 10.3885 6.99645L10.3885 6.99646L10.3897 6.99531L10.9375 6.4475L11.4847 6.99467C11.5848 7.09843 11.7223 7.15724 11.8663 7.15858C12.0101 7.15993 12.1491 7.10289 12.2507 7.00082C12.3528 6.89926 12.4099 6.76023 12.4085 6.61632C12.4072 6.47233 12.3484 6.33484 12.2446 6.23469Z" fill="#545F7D" stroke="#545F7D" stroke-width="0.2"/>
</svg>
