<svg width="16" height="15" viewBox="0 0 16 15" fill="none" xmlns="http://www.w3.org/2000/svg">
<g clip-path="url(#clip0_2_1617)">
<path opacity="0.4" d="M9.33341 12.8775V10.2223C9.33341 10.1044 9.28659 9.99133 9.20324 9.90798C9.11989 9.82463 9.00684 9.77781 8.88897 9.77781H7.11119C6.99332 9.77781 6.88027 9.82463 6.79692 9.90798C6.71357 9.99133 6.66675 10.1044 6.66675 10.2223V12.8809C6.66675 12.9984 6.62023 13.1111 6.53736 13.1943C6.45449 13.2776 6.34201 13.3247 6.22453 13.3253L3.11119 13.3334C2.99332 13.3334 2.88027 13.2865 2.79692 13.2032C2.71357 13.1198 2.66675 13.0068 2.66675 12.8889V8.33503L7.78869 4.11697C7.84889 4.06845 7.92388 4.04199 8.00119 4.04199C8.07851 4.04199 8.1535 4.06845 8.21369 4.11697L13.3334 8.33336V12.8889C13.3334 13.0068 13.2866 13.1198 13.2032 13.2032C13.1199 13.2865 13.0068 13.3334 12.889 13.3334L9.77786 13.3248C9.71926 13.3248 9.66124 13.3132 9.60713 13.2907C9.55303 13.2681 9.50391 13.2352 9.4626 13.1936C9.4213 13.152 9.38862 13.1027 9.36645 13.0485C9.34427 12.9942 9.33305 12.9361 9.33341 12.8775Z" fill="#213F7D"/>
<path d="M15.9255 7.45419L15.2172 8.31531C15.1894 8.34916 15.1552 8.3772 15.1166 8.39783C15.0779 8.41846 15.0356 8.43127 14.992 8.43553C14.9484 8.43978 14.9044 8.4354 14.8625 8.42264C14.8206 8.40988 14.7816 8.38898 14.7478 8.36114L8.21362 2.97808C8.15342 2.92956 8.07844 2.9031 8.00112 2.9031C7.9238 2.9031 7.84882 2.92956 7.78862 2.97808L1.25475 8.36114C1.18646 8.41728 1.09866 8.44398 1.01068 8.43539C0.922692 8.42679 0.841724 8.3836 0.785587 8.31531L0.0772555 7.45419C0.020991 7.38604 -0.00590471 7.29833 0.0024817 7.21035C0.0108681 7.12237 0.0538501 7.04132 0.121978 6.98503L7.15251 1.19447C7.39117 0.998077 7.69065 0.890697 7.99973 0.890697C8.30881 0.890697 8.60829 0.998077 8.84695 1.19447L11.3333 3.23919V1.22225C11.3333 1.13384 11.3684 1.04906 11.431 0.986547C11.4935 0.924035 11.5783 0.888916 11.6667 0.888916H13.2222C13.3106 0.888916 13.3954 0.924035 13.4579 0.986547C13.5204 1.04906 13.5555 1.13384 13.5555 1.22225V5.06975L15.8778 6.98392C15.9119 7.01159 15.9402 7.04573 15.9611 7.08438C15.9819 7.12302 15.995 7.16542 15.9994 7.20912C16.0039 7.25283 15.9996 7.29697 15.9869 7.33903C15.9743 7.38109 15.9534 7.42023 15.9255 7.45419V7.45419Z" fill="#213F7D"/>
</g>
<defs>
<clipPath id="clip0_2_1617">
<rect width="16" height="14.2222" fill="white"/>
</clipPath>
</defs>
</svg>
