<svg width="16" height="16" viewBox="0 0 16 16" fill="none" xmlns="http://www.w3.org/2000/svg">
<g clip-path="url(#clip0_2_1102)">
<path d="M14.9918 2.1599H12.7037V0.76803C12.7037 0.559902 12.5437 0.399902 12.3355 0.399902H10.6562C10.4481 0.399902 10.2881 0.559902 10.2881 0.76803V2.1599H5.71174V0.76803C5.71174 0.559902 5.55174 0.399902 5.34361 0.399902H3.66361C3.45548 0.399902 3.29548 0.559902 3.29548 0.76803V2.1599H1.00796C0.816088 2.1599 0.639832 2.3199 0.639832 2.52803V15.248C0.639832 15.4562 0.799832 15.6162 1.00796 15.6162H14.9916C15.1835 15.6162 15.3598 15.4562 15.3598 15.248V2.52803C15.3598 2.3199 15.1835 2.1599 14.9916 2.1599H14.9918ZM11.0082 1.13616H11.9682V3.248H11.0082V1.13616ZM4.01631 1.13616H4.97631V3.248H4.01631V1.13616ZM14.6238 14.8637H1.37631V5.50368H14.6245L14.6238 14.8637Z" fill="#545F7D"/>
<path d="M3.19997 13.2162H4.91181C5.00806 13.2162 5.08806 13.1362 5.08806 13.0399V11.3118C5.08806 11.2155 5.00806 11.1355 4.91181 11.1355L3.19997 11.1361C3.10372 11.1361 3.02371 11.2161 3.02371 11.3124V13.0242C3.02371 13.1361 3.10371 13.2161 3.19997 13.2161V13.2162Z" fill="#545F7D"/>
<path d="M7.13641 13.2162H8.84825C8.9445 13.2162 9.0245 13.1362 9.0245 13.0399L9.02388 11.3118C9.02388 11.2155 8.94388 11.1355 8.84762 11.1355L7.13642 11.1361C7.04017 11.1361 6.96017 11.2161 6.96017 11.3124V13.0242C6.94392 13.1361 7.02392 13.2161 7.13642 13.2161L7.13641 13.2162Z" fill="#545F7D"/>
<path d="M11.0564 13.2162H12.7682C12.8645 13.2162 12.9445 13.1362 12.9445 13.0399L12.9439 11.3118C12.9439 11.2155 12.8639 11.1355 12.7676 11.1355L11.0564 11.1361C10.9602 11.1361 10.8801 11.2161 10.8801 11.3124V13.0242C10.8639 13.1361 10.9439 13.2161 11.0564 13.2161L11.0564 13.2162Z" fill="#545F7D"/>
<path d="M3.19997 9.26366H4.91181C5.00806 9.26366 5.08806 9.18366 5.08806 9.0874V7.37621C5.08806 7.27996 5.00806 7.19995 4.91181 7.19995H3.19997C3.10372 7.19995 3.02371 7.27995 3.02371 7.37621V9.08804C3.02371 9.18367 3.10371 9.26368 3.19997 9.26368V9.26366Z" fill="#545F7D"/>
<path d="M7.13641 9.26366H8.84825C8.9445 9.26366 9.0245 9.18366 9.0245 9.0874L9.02388 7.37621C9.02388 7.27996 8.94388 7.19995 8.84762 7.19995H7.13642C7.04017 7.19995 6.96017 7.27995 6.96017 7.37621V9.08804C6.94392 9.18367 7.02392 9.26368 7.13642 9.26368L7.13641 9.26366Z" fill="#545F7D"/>
<path d="M11.0564 9.26366H12.7682C12.8645 9.26366 12.9445 9.18366 12.9445 9.0874L12.9439 7.37621C12.9439 7.27996 12.8639 7.19995 12.7676 7.19995H11.0564C10.9602 7.19995 10.8801 7.27995 10.8801 7.37621V9.08804C10.8639 9.18367 10.9439 9.26368 11.0564 9.26368L11.0564 9.26366Z" fill="#545F7D"/>
</g>
<defs>
<clipPath id="clip0_2_1102">
<rect width="16" height="16" fill="white"/>
</clipPath>
</defs>
</svg>
