<svg width="19" height="16" viewBox="0 0 19 16" fill="none" xmlns="http://www.w3.org/2000/svg">
<path d="M15.4138 3.79706L14.0006 2.38393C13.6879 2.07394 13.2653 1.90002 12.825 1.90002H6.09187C5.6525 1.90002 5.22797 2.07518 4.91625 2.38393L3.50312 3.79706H0V11.3882H1.9C2.4225 11.3882 2.84406 10.9666 2.84703 10.4471H3.11719L5.62875 12.7152C6.54609 13.4603 7.81969 13.4782 8.76375 12.828C9.13484 13.1486 9.53562 13.3 9.98391 13.3C10.5242 13.3 11.0319 13.0803 11.4327 12.5875C12.0888 12.8458 12.8636 12.6647 13.3327 12.0888L14.1105 11.1299C14.2767 10.925 14.3806 10.6905 14.4341 10.4471H16.153C16.1559 10.9666 16.5805 11.3882 17.1 11.3882H19V3.79706H15.4138ZM1.425 10.4382C1.16375 10.4382 0.95 10.2244 0.95 9.96315C0.95 9.7019 1.16375 9.48815 1.425 9.48815C1.68625 9.48815 1.9 9.7019 1.9 9.96315C1.9 10.2274 1.68625 10.4382 1.425 10.4382ZM13.0031 10.2333L12.2283 11.1892C12.1452 11.2902 11.9967 11.308 11.8928 11.2249L11.1833 10.6489L10.2927 11.7325C10.1145 11.9492 9.84734 11.875 9.75828 11.8038L8.66578 10.8686L8.20266 11.4386C7.79 11.9463 7.03891 12.0235 6.56094 11.6346L3.67234 9.02206H2.85V5.21909H4.09391L5.92563 3.39034C5.985 3.36659 6.03547 3.34581 6.09484 3.32206H7.77812L6.62922 4.37596C5.75641 5.17456 5.70594 6.52237 6.49859 7.38331C6.93797 7.86424 8.31547 8.60643 9.51187 7.51393L9.75531 7.29127L12.9675 9.89784C13.0684 9.98096 13.0833 10.1324 13.0031 10.2333V10.2333ZM16.15 9.02206H14.0956C14.0273 8.93893 13.9502 8.86174 13.867 8.79346L10.8181 6.31752L11.1892 5.97909C11.3822 5.80096 11.397 5.50112 11.2189 5.30815L10.8953 4.96081C10.7172 4.76784 10.4173 4.75596 10.2244 4.93112L8.58563 6.43331C8.30359 6.69159 7.82266 6.71237 7.55844 6.43331C7.28234 6.1394 7.30609 5.68815 7.59406 5.4269L9.54156 3.64268C9.76125 3.44081 10.0462 3.33096 10.3431 3.33096L12.828 3.32502C12.8903 3.32502 12.9497 3.34877 12.9913 3.39331L14.823 5.22206H16.15V9.02206V9.02206ZM17.575 10.4382C17.3137 10.4382 17.1 10.2244 17.1 9.96315C17.1 9.7019 17.3137 9.48815 17.575 9.48815C17.8362 9.48815 18.05 9.7019 18.05 9.96315C18.05 10.2274 17.8362 10.4382 17.575 10.4382Z" fill="#213F7D"/>
</svg>
