<svg width="16" height="16" viewBox="0 0 16 16" fill="none" xmlns="http://www.w3.org/2000/svg">
<path fill-rule="evenodd" clip-rule="evenodd" d="M7.98559 1.28748C7.85184 1.29311 7.73559 1.38123 7.69435 1.50873L6.18747 6.17993L1.28059 6.16993C1.14184 6.16993 1.01809 6.25931 0.975594 6.39118C0.932469 6.52368 0.979969 6.66806 1.09247 6.74993L5.06879 9.62673L3.54191 14.293C3.49878 14.4248 3.54566 14.5699 3.65816 14.6511C3.77003 14.733 3.92253 14.733 4.03441 14.6511L7.99937 11.758L11.9656 14.6511C12.0775 14.733 12.23 14.733 12.3419 14.6511C12.4544 14.5698 12.5012 14.4248 12.4581 14.293L10.9312 9.62673L14.9076 6.74993C15.0201 6.66806 15.0676 6.52367 15.0244 6.39118C14.9813 6.2593 14.8582 6.16993 14.7194 6.17055L9.81256 6.18055L8.30381 1.50935V1.50873C8.25944 1.37185 8.12944 1.28185 7.98568 1.28748L7.98559 1.28748Z" fill="#E9B200"/>
</svg>
