<svg width="16" height="13" viewBox="0 0 16 13" fill="none" xmlns="http://www.w3.org/2000/svg">
<path opacity="0.4" d="M2.4 5.60003C2.71645 5.60003 3.02579 5.50619 3.28891 5.33038C3.55203 5.15457 3.75711 4.90468 3.87821 4.61232C3.99931 4.31996 4.03099 3.99825 3.96926 3.68788C3.90752 3.37751 3.75513 3.09242 3.53137 2.86865C3.30761 2.64489 3.02251 2.49251 2.71214 2.43077C2.40177 2.36903 2.08007 2.40072 1.78771 2.52182C1.49534 2.64292 1.24546 2.84799 1.06965 3.11111C0.893838 3.37423 0.8 3.68358 0.8 4.00003C0.800397 4.42425 0.969096 4.83099 1.26907 5.13096C1.56904 5.43093 1.97578 5.59963 2.4 5.60003V5.60003ZM14.4 6.40003H12.8C12.3774 6.39957 11.9719 6.5668 11.6725 6.86503C12.1789 7.14062 12.613 7.53205 12.9392 8.00737C13.2655 8.48268 13.4748 9.02842 13.55 9.60003H15.2C15.4122 9.60003 15.6157 9.51574 15.7657 9.36571C15.9157 9.21568 16 9.0122 16 8.80003V8.00003C15.9996 7.5758 15.8309 7.16907 15.5309 6.86909C15.231 6.56912 14.8242 6.40042 14.4 6.40003ZM1.6 6.40003C1.17578 6.40042 0.76904 6.56912 0.469068 6.86909C0.169096 7.16907 0.000397152 7.5758 0 8.00003V8.80003C0 9.0122 0.0842855 9.21568 0.234315 9.36571C0.384344 9.51574 0.587827 9.60003 0.8 9.60003H2.4475C2.52367 9.02841 2.73362 8.48282 3.06028 8.0076C3.38694 7.53237 3.82111 7.14091 4.3275 6.86503C4.02809 6.5668 3.62259 6.39957 3.2 6.40003H1.6ZM13.6 5.60003C13.9165 5.60003 14.2258 5.50619 14.4889 5.33038C14.752 5.15457 14.9571 4.90468 15.0782 4.61232C15.1993 4.31996 15.231 3.99825 15.1693 3.68788C15.1075 3.37751 14.9551 3.09242 14.7314 2.86865C14.5076 2.64489 14.2225 2.49251 13.9121 2.43077C13.6018 2.36903 13.2801 2.40072 12.9877 2.52182C12.6953 2.64292 12.4455 2.84799 12.2696 3.11111C12.0938 3.37423 12 3.68358 12 4.00003C12.0004 4.42425 12.1691 4.83099 12.4691 5.13096C12.769 5.43093 13.1758 5.59963 13.6 5.60003Z" fill="#213F7D"/>
<path d="M9.91995 7.20005H9.71245C9.17907 7.46076 8.59364 7.5975 7.99995 7.60005C7.38495 7.60005 6.80995 7.45005 6.28745 7.20005H6.07995C5.31619 7.20025 4.58376 7.50374 4.0437 8.0438C3.50364 8.58386 3.20015 9.31629 3.19995 10.0801V10.8001C3.19995 11.1183 3.32638 11.4235 3.55142 11.6486C3.77647 11.8736 4.08169 12.0001 4.39995 12.0001H11.6C11.9182 12.0001 12.2234 11.8736 12.4485 11.6486C12.6735 11.4235 12.8 11.1183 12.8 10.8001V10.0801C12.7998 9.31629 12.4963 8.58386 11.9562 8.0438C11.4161 7.50374 10.6837 7.20025 9.91995 7.20005V7.20005ZM7.99995 6.40005C8.55374 6.40005 9.09509 6.23583 9.55555 5.92817C10.016 5.6205 10.3749 5.1832 10.5868 4.67156C10.7987 4.15993 10.8542 3.59694 10.7462 3.0538C10.6381 2.51065 10.3714 2.01174 9.97985 1.62015C9.58826 1.22856 9.08935 0.96189 8.5462 0.853851C8.00306 0.745813 7.44007 0.801262 6.92844 1.01319C6.4168 1.22511 5.9795 1.584 5.67184 2.04445C5.36417 2.50491 5.19995 3.04626 5.19995 3.60005C5.19975 3.96781 5.27204 4.332 5.41269 4.6718C5.55333 5.0116 5.75957 5.32035 6.01961 5.58039C6.27966 5.84043 6.5884 6.04667 6.9282 6.18731C7.26801 6.32796 7.63219 6.40025 7.99995 6.40005Z" fill="#213F7D"/>
</svg>
