<svg width="16" height="16" viewBox="0 0 16 16" fill="none" xmlns="http://www.w3.org/2000/svg">
<g clip-path="url(#clip0_2_1632)">
<path opacity="0.4" d="M5.625 14H3C2.20435 14 1.44129 13.6839 0.87868 13.1213C0.31607 12.5587 0 11.7956 0 11L0 5C0 4.20435 0.31607 3.44129 0.87868 2.87868C1.44129 2.31607 2.20435 2 3 2H5.625C5.72446 2 5.81984 2.03951 5.89016 2.10983C5.96049 2.18016 6 2.27554 6 2.375V3.625C6 3.72446 5.96049 3.81984 5.89016 3.89017C5.81984 3.96049 5.72446 4 5.625 4H3C2.73478 4 2.48043 4.10536 2.29289 4.29289C2.10536 4.48043 2 4.73478 2 5V11C2 11.2652 2.10536 11.5196 2.29289 11.7071C2.48043 11.8946 2.73478 12 3 12H5.625C5.72446 12 5.81984 12.0395 5.89016 12.1098C5.96049 12.1802 6 12.2755 6 12.375V13.625C6 13.7245 5.96049 13.8198 5.89016 13.8902C5.81984 13.9605 5.72446 14 5.625 14V14Z" fill="#213F7D"/>
<path d="M11.0313 2.75946L15.7781 7.46571C15.8485 7.53545 15.9044 7.61844 15.9425 7.70989C15.9807 7.80134 16.0003 7.89944 16.0003 7.99852C16.0003 8.09761 15.9807 8.19571 15.9425 8.28716C15.9044 8.37861 15.8485 8.4616 15.7781 8.53134L11.0281 13.2438C10.8868 13.3831 10.6962 13.4609 10.4978 13.4603C10.2994 13.4597 10.1093 13.3808 9.96875 13.2407L9.28438 12.5563C9.21298 12.4845 9.15683 12.399 9.1193 12.3049C9.08177 12.2108 9.06363 12.1101 9.06596 12.0088C9.0683 11.9076 9.09106 11.8078 9.13289 11.7156C9.17472 11.6233 9.23475 11.5404 9.30938 11.472L11.7344 9.25009H5.75C5.65144 9.25033 5.5538 9.2311 5.4627 9.1935C5.37159 9.1559 5.28881 9.10066 5.21912 9.03097C5.14943 8.96128 5.09419 8.8785 5.05659 8.78739C5.01899 8.69629 4.99976 8.59865 5 8.50009V7.50009C4.99976 7.40153 5.01899 7.30389 5.05659 7.21278C5.09419 7.12168 5.14943 7.0389 5.21912 6.96921C5.28881 6.89951 5.37159 6.84428 5.4627 6.80667C5.5538 6.76907 5.65144 6.74984 5.75 6.75009H11.7344L9.30938 4.52821C9.23516 4.45972 9.17555 4.37694 9.1341 4.28484C9.09266 4.19274 9.07025 4.09322 9.0682 3.99225C9.06616 3.89127 9.08453 3.79093 9.12222 3.69723C9.1599 3.60353 9.21612 3.5184 9.2875 3.44696L9.97188 2.76259C10.1121 2.62191 10.3023 2.54258 10.5009 2.542C10.6995 2.54141 10.8902 2.61962 11.0313 2.75946V2.75946Z" fill="#213F7D"/>
</g>
<defs>
<clipPath id="clip0_2_1632">
<rect width="16" height="16" fill="white"/>
</clipPath>
</defs>
</svg>
