<svg width="20" height="20" viewBox="0 0 20 20" fill="none" xmlns="http://www.w3.org/2000/svg">
<g clip-path="url(#clip0_2_414)">
<path d="M9.99998 6.1111C10.9222 6.1111 11.6666 5.36666 11.6666 4.44444C11.6666 3.52222 10.9222 2.77777 9.99998 2.77777C9.07776 2.77777 8.33331 3.52222 8.33331 4.44444C8.33331 5.36666 9.07776 6.1111 9.99998 6.1111ZM9.99998 8.33333C9.07776 8.33333 8.33331 9.07777 8.33331 9.99999C8.33331 10.9222 9.07776 11.6667 9.99998 11.6667C10.9222 11.6667 11.6666 10.9222 11.6666 9.99999C11.6666 9.07777 10.9222 8.33333 9.99998 8.33333ZM9.99998 13.8889C9.07776 13.8889 8.33331 14.6333 8.33331 15.5555C8.33331 16.4778 9.07776 17.2222 9.99998 17.2222C10.9222 17.2222 11.6666 16.4778 11.6666 15.5555C11.6666 14.6333 10.9222 13.8889 9.99998 13.8889Z" fill="#545F7D"/>
</g>
<defs>
<clipPath id="clip0_2_414">
<rect width="20" height="20" fill="white"/>
</clipPath>
</defs>
</svg>
