<svg width="16" height="16" viewBox="0 0 16 16" fill="none" xmlns="http://www.w3.org/2000/svg">
<g clip-path="url(#clip0_2_1582)">
<path fill-rule="evenodd" clip-rule="evenodd" d="M7.98439 0.959961C7.85189 0.966836 7.73688 1.05434 7.69563 1.18059L6.08939 5.99995H0.945073V6.00057C0.806948 6.00057 0.684449 6.08932 0.641953 6.22057C0.598828 6.35182 0.645078 6.49558 0.755703 6.57807L4.93442 9.63375L3.32818 14.6213V14.6207C3.28506 14.7531 3.33256 14.8975 3.44506 14.9788C3.55756 15.0607 3.70943 15.06 3.82131 14.9782L8.00003 11.9225L12.1788 14.9782C12.2906 15.06 12.4425 15.0607 12.555 14.9788C12.6675 14.8975 12.715 14.7531 12.6719 14.6207L11.0656 9.63313L15.2444 6.57745V6.57807C15.355 6.49557 15.4012 6.35182 15.3581 6.22057C15.3156 6.08932 15.1931 6.00057 15.055 6.00057H9.91068L8.30444 1.18121V1.18059C8.26006 1.04371 8.1288 0.953081 7.98444 0.959961H7.98439ZM8.00001 2.29371L9.37564 6.41995V6.42057C9.41814 6.55182 9.54127 6.64119 9.68001 6.64057H14.0738L10.4987 9.25497V9.2556C10.3875 9.33685 10.3406 9.48059 10.3831 9.61248L11.7587 13.8806L8.1893 11.2712H8.18867C8.07617 11.1887 7.92368 11.1887 7.81117 11.2712L4.24173 13.8806L5.61736 9.61248H5.61673C5.65923 9.4806 5.61236 9.33684 5.50111 9.2556L1.92607 6.6412H6.31983V6.64057C6.45858 6.6412 6.5817 6.55182 6.6242 6.42057L7.99983 2.29433L8.00001 2.29371Z" fill="#E9B200"/>
</g>
<defs>
<clipPath id="clip0_2_1582">
<rect width="16" height="16" fill="white"/>
</clipPath>
</defs>
</svg>
