<svg width="40" height="40" viewBox="0 0 40 40" fill="none" xmlns="http://www.w3.org/2000/svg">
<path d="M6.04077 35.1796C6.47985 32.2202 7.79389 29.6264 9.97985 27.4C12.7408 24.6 16.0735 23.2 19.9799 23.2C23.8863 23.2 27.2207 24.6 29.9799 27.4C32.1799 29.6265 33.5064 32.2204 33.9595 35.1796M28.1408 14.0204C28.1408 16.2469 27.347 18.1532 25.7595 19.7408C24.1736 21.3408 22.2533 22.1408 20.0003 22.1408C17.7597 22.1408 15.8411 21.3408 14.2411 19.7408C12.6536 18.1532 11.8599 16.247 11.8599 14.0204C11.8599 11.7672 12.6537 9.84676 14.2411 8.25956C15.8411 6.67364 17.7599 5.87988 20.0003 5.87988C22.2535 5.87988 24.1739 6.67364 25.7595 8.25956C27.3471 9.84708 28.1408 11.7674 28.1408 14.0204Z" stroke="#213F7D" stroke-width="3" stroke-linecap="round" stroke-linejoin="round"/>
</svg>
