<svg width="16" height="16" viewBox="0 0 16 16" fill="none" xmlns="http://www.w3.org/2000/svg">
<path d="M9.77401 6.66967L9.77962 6.66586L9.75982 6.59636C9.71625 6.44343 9.564 6.32771 9.3989 6.34777C9.36766 6.34945 9.2924 6.35936 9.19011 6.38435C9.07397 6.41271 8.91755 6.46179 8.74075 6.54499C8.40542 6.70279 7.99708 6.98327 7.6526 7.47634C7.38761 7.30794 6.97325 7.15796 6.42653 7.29402C6.29055 7.31888 6.17483 7.43296 6.17119 7.59228C6.08092 8.23023 6.30839 8.8475 6.61299 9.35911C6.91327 9.86347 7.29487 10.2759 7.5466 10.521C7.56249 10.5583 7.58043 10.5941 7.59543 10.624L7.59569 10.6245C7.61097 10.655 7.62171 10.6767 7.62821 10.6923C7.6364 10.8631 7.64822 11.0076 7.66007 11.1147C7.66617 11.1698 7.67236 11.2157 7.67821 11.2507C7.68112 11.268 7.68411 11.2836 7.68715 11.2967C7.68865 11.3032 7.69087 11.3123 7.69412 11.3219C7.72454 11.4853 7.8832 11.5874 8.03111 11.5874H8.07923V11.5882L8.09181 11.5866C8.27317 11.5636 8.41337 11.385 8.36923 11.1959L8.36853 11.1914L8.36487 11.1667C8.36174 11.1448 8.35736 11.1121 8.35247 11.07C8.3436 10.9938 8.33307 10.8867 8.32522 10.756C8.56205 10.4973 9.20005 9.75691 9.52866 9.10039L9.52867 9.1004L9.52938 9.09892C9.81883 8.49614 9.8759 7.8829 9.86161 7.41689C9.85445 7.18353 9.82936 6.98603 9.80607 6.84375C9.79441 6.77257 9.78321 6.71525 9.77498 6.67445L9.77401 6.66967ZM6.9818 8.07868C6.92085 8.12226 6.88058 8.17856 6.85872 8.23978C6.83687 8.1386 6.8234 8.03695 6.82009 7.93552C6.98554 7.93513 7.1176 7.97432 7.21917 8.02475C7.14071 8.016 7.05964 8.03355 6.99031 8.07322L6.99005 8.07278L6.9818 8.07868ZM8.89404 8.78807C8.75729 9.05732 8.55609 9.35219 8.35423 9.61332C8.44352 9.07772 8.62863 8.48317 9.00878 7.9634L9.00879 7.96341L9.00941 7.96254C9.11803 7.81064 9.09966 7.60229 8.93811 7.48677C8.82302 7.40448 8.67553 7.39508 8.56056 7.46562C8.76994 7.28705 8.97675 7.1833 9.13929 7.12288C9.2005 7.49412 9.20811 8.15942 8.90236 8.77142L8.89404 8.78807ZM8.00875 8.1728C8.14758 7.90657 8.30801 7.70292 8.4705 7.5471C8.46797 7.55037 8.46549 7.5537 8.46304 7.5571C8.17359 7.94354 7.97559 8.36374 7.84137 8.77634C7.86205 8.57296 7.91467 8.36907 8.00875 8.1728Z" fill="#213F7D" stroke="#213F7D" stroke-width="0.2"/>
<path d="M4.46006 11.84C4.46006 12.0234 4.61671 12.18 4.80006 12.18C4.98341 12.18 5.14006 12.0234 5.14006 11.84V5.76002C5.14006 5.57667 4.98341 5.42002 4.80006 5.42002C4.61671 5.42002 4.46006 5.57667 4.46006 5.76002V11.84Z" fill="#213F7D" stroke="#213F7D" stroke-width="0.2"/>
<path d="M2.85996 11.84C2.85996 12.0234 3.01661 12.18 3.19996 12.18C3.38331 12.18 3.53996 12.0234 3.53996 11.84V5.76002C3.53996 5.57667 3.38331 5.42002 3.19996 5.42002C3.01661 5.42002 2.85996 5.57667 2.85996 5.76002V11.84Z" fill="#213F7D" stroke="#213F7D" stroke-width="0.2"/>
<path d="M10.86 11.84C10.86 12.0234 11.0166 12.18 11.2 12.18C11.3833 12.18 11.54 12.0234 11.54 11.84V5.76002C11.54 5.57667 11.3833 5.42002 11.2 5.42002C11.0166 5.42002 10.86 5.57667 10.86 5.76002V11.84Z" fill="#213F7D" stroke="#213F7D" stroke-width="0.2"/>
<path d="M12.4601 11.84C12.4601 12.0234 12.6167 12.18 12.8001 12.18C12.9834 12.18 13.1401 12.0234 13.1401 11.84V5.76002C13.1401 5.57667 12.9834 5.42002 12.8001 5.42002C12.6167 5.42002 12.4601 5.57667 12.4601 5.76002V11.84Z" fill="#213F7D" stroke="#213F7D" stroke-width="0.2"/>
<path d="M13.36 5.30009H13.5822L13.5368 5.24882C13.6336 5.18883 13.7013 5.08332 13.7149 4.97143L13.7156 4.97152V4.95939C13.7156 4.82919 13.6337 4.69708 13.517 4.64614L8.18352 1.46854C8.08119 1.39481 7.94248 1.40265 7.83674 1.4662C7.8367 1.46622 7.83666 1.46625 7.83662 1.46627L2.47691 4.6661L2.47684 4.66599L2.4727 4.66876C2.35048 4.75023 2.27553 4.88576 2.31862 5.04581C2.34567 5.19249 2.48648 5.30009 2.64004 5.30009H13.36ZM12.119 4.62009H3.86586L7.99994 2.1485L12.119 4.62009Z" fill="#213F7D" stroke="#213F7D" stroke-width="0.2"/>
<path d="M2.64015 12.9801H13.3601C13.5435 12.9801 13.7001 12.8235 13.7001 12.6401C13.7001 12.4568 13.5435 12.3001 13.3601 12.3001H2.64015C2.45679 12.3001 2.30015 12.4568 2.30015 12.6401C2.30015 12.8235 2.45679 12.9801 2.64015 12.9801Z" fill="#213F7D" stroke="#213F7D" stroke-width="0.2"/>
<path d="M1.8401 13.7802H14.1601C14.3435 13.7802 14.5001 13.6235 14.5001 13.4402C14.5001 13.2568 14.3435 13.1002 14.1601 13.1002H1.8401C1.65674 13.1002 1.5001 13.2568 1.5001 13.4402C1.5001 13.6235 1.65674 13.7802 1.8401 13.7802Z" fill="#213F7D" stroke="#213F7D" stroke-width="0.2"/>
<path d="M1.04005 14.58H14.96C15.1434 14.58 15.3 14.4234 15.3 14.24C15.3 14.0566 15.1434 13.9 14.96 13.9H1.04005C0.856696 13.9 0.700049 14.0566 0.700049 14.24C0.700049 14.4234 0.856696 14.58 1.04005 14.58Z" fill="#213F7D" stroke="#213F7D" stroke-width="0.2"/>
</svg>
