<svg width="16" height="16" viewBox="0 0 16 16" fill="none" xmlns="http://www.w3.org/2000/svg">
<g clip-path="url(#clip0_2_1701)">
<path opacity="0.4" d="M4.76277 11.8763C4.27067 11.7742 3.79408 11.608 3.34517 11.3821C2.56288 11.498 1.76385 11.4051 1.02903 11.1128C0.608867 10.9444 0.239485 11.4464 0.52586 11.797C0.959982 12.3262 1.47951 12.7791 2.06296 13.1371C3.57357 14.0704 5.44696 14.2437 7.10003 13.6828C7.5433 13.0917 7.83326 12.4 7.94402 11.6695C6.92092 12.0205 5.82268 12.0918 4.76277 11.8763V11.8763ZM4.33052 7.94419C3.97953 6.92108 3.90814 5.82279 4.12373 4.76286C4.22582 4.27079 4.39195 3.79422 4.61787 3.34532C4.50203 2.563 4.59493 1.76397 4.88715 1.0291C5.05561 0.609052 4.55342 0.239484 4.20295 0.5258C3.67372 0.959891 3.22082 1.47945 2.863 2.06297C1.92966 3.57365 1.75632 5.447 2.31711 7.10007C2.90826 7.54336 3.59998 7.83337 4.33052 7.94419V7.94419ZM11.6693 8.05588C12.0203 9.07899 12.0917 10.1773 11.8761 11.2372C11.774 11.7293 11.6079 12.2059 11.382 12.6548C11.4978 13.4371 11.4049 14.2361 11.1127 14.971C10.9442 15.391 11.4464 15.7606 11.7969 15.4743C12.3261 15.0402 12.779 14.5206 13.1368 13.9371C14.0702 12.4264 14.2435 10.5531 13.6827 8.9C13.0916 8.45671 12.3999 8.16671 11.6693 8.05588V8.05588ZM15.474 4.2031C15.0399 3.67385 14.5204 3.22089 13.9369 2.86296C12.4263 1.92967 10.5529 1.75639 8.89982 2.31718C8.45653 2.9083 8.16657 3.60002 8.05583 4.33054C9.07892 3.97961 10.1772 3.90822 11.2371 4.12376C11.7292 4.22587 12.2058 4.39202 12.6547 4.61796C13.437 4.50201 14.236 4.59491 14.9708 4.88725C15.391 5.0557 15.7604 4.55357 15.474 4.2031Z" fill="#213F7D"/>
<path d="M15.8306 8.56583C15.3057 6.34378 13.4763 4.5709 11.2373 4.12382C10.1773 3.90828 9.0791 3.97967 8.056 4.3306C8.16973 3.57389 8.47491 2.85878 8.94257 2.25311C9.41024 1.64744 10.0249 1.1713 10.7282 0.86985C11.1444 0.691872 11.0506 0.0755381 10.6003 0.03019C9.91909 -0.0370417 9.23144 0.0100551 8.56577 0.169534C6.34386 0.694435 4.57092 2.5239 4.12391 4.76291C3.90832 5.82285 3.9797 6.92114 4.33069 7.94425C3.57398 7.83049 2.85887 7.5253 2.25319 7.05762C1.64752 6.58994 1.17137 5.97528 0.869905 5.27195C0.691928 4.85587 0.0755987 4.94956 0.0301902 5.39988C-0.0370503 6.08107 0.0100669 6.76871 0.169593 7.43436C0.694491 9.6564 2.52395 11.4293 4.76294 11.8764C5.82286 12.0919 6.9211 12.0205 7.94419 11.6696C7.83046 12.4263 7.52529 13.1414 7.05762 13.7471C6.58996 14.3527 5.9753 14.8289 5.27197 15.1303C4.85584 15.3083 4.94959 15.9246 5.3999 15.97C6.0811 16.0372 6.76875 15.9901 7.43443 15.8307C9.65634 15.3058 11.4293 13.4763 11.8763 11.2373C12.0919 10.1773 12.0205 9.07905 11.6695 8.05594C12.4262 8.1697 13.1413 8.47489 13.747 8.94257C14.3527 9.41025 14.8288 10.0249 15.1303 10.7282C15.3083 11.1443 15.9246 11.0506 15.97 10.6003C16.0372 9.91912 15.9901 9.23148 15.8306 8.56583V8.56583ZM8.0001 9.50009C7.70343 9.50009 7.41342 9.41212 7.16674 9.2473C6.92007 9.08248 6.7278 8.84821 6.61427 8.57413C6.50074 8.30004 6.47103 7.99844 6.52891 7.70747C6.58678 7.41649 6.72964 7.14922 6.93942 6.93944C7.1492 6.72966 7.41648 6.5868 7.70745 6.52892C7.99842 6.47104 8.30002 6.50074 8.57411 6.61427C8.8482 6.72781 9.08247 6.92006 9.24729 7.16674C9.41211 7.41341 9.50009 7.70342 9.50009 8.00009C9.50008 8.39791 9.34204 8.77944 9.06074 9.06074C8.77944 9.34204 8.39792 9.50008 8.0001 9.50009Z" fill="#213F7D"/>
</g>
<defs>
<clipPath id="clip0_2_1701">
<rect width="16" height="16" fill="white"/>
</clipPath>
</defs>
</svg>
