<svg width="40" height="40" viewBox="0 0 40 40" fill="none" xmlns="http://www.w3.org/2000/svg">
<circle opacity="0.1" cx="20" cy="20" r="20" fill="#F55F44"/>
<path d="M12.9617 11.4001V27.4119H19.3157V26.2119H14.1617V12.6001H20.1999V16.9579H24.3155V20.6539H25.5155V15.9257L21.0881 11.3999L12.9617 11.4001ZM21.3999 13.4361L23.6741 15.7579H21.3999V13.4361Z" fill="#F55F44"/>
<path d="M15.3938 19.3525H22.604V20.5525H15.3938V19.3525Z" fill="#F55F44"/>
<path d="M15.3938 21.9524H19.004V23.1524H15.3938V21.9524Z" fill="#F55F44"/>
<path d="M29.0382 28.9423V23.4001C29.0382 21.7719 25.1922 21.7258 24.7538 21.7258C24.3155 21.7258 20.4718 21.7758 20.4718 23.4001V28.9797C20.4726 29.0406 20.4827 29.1007 20.5023 29.1578C20.8437 30.5601 24.3383 30.6 24.7563 30.6C25.1743 30.6 28.9563 30.5523 29.0359 28.9742C29.0359 28.9656 29.0382 28.9562 29.0382 28.9421L29.0382 28.9423ZM27.8382 25.1423C27.5999 25.3618 26.4999 25.7204 24.7562 25.7204C23.0117 25.7204 21.9202 25.3618 21.6718 25.1501V24.6344C22.8398 25.0602 24.4718 25.0782 24.7562 25.0782C25.0406 25.0782 26.6718 25.0579 27.8406 24.6344L27.8382 25.1423ZM21.6718 26.4758C22.8398 26.9016 24.4718 26.9196 24.7562 26.9196C25.0406 26.9196 26.6718 26.8993 27.8406 26.4758L27.8398 27.0001C27.5922 27.2118 26.5 27.5704 24.7554 27.5704C23.0117 27.5704 21.9202 27.2001 21.6718 27.0001L21.6718 26.4758ZM24.7562 22.9299C26.2562 22.9299 27.2742 23.1955 27.6882 23.4041C27.2741 23.6041 26.2562 23.8783 24.7562 23.8783C23.2562 23.8783 22.2358 23.6142 21.8242 23.4002C22.2359 23.2002 23.2539 22.9299 24.7562 22.9299ZM21.6718 28.8344V28.318C22.8398 28.7438 24.4718 28.7618 24.7562 28.7618C25.0406 28.7618 26.6718 28.7415 27.8406 28.318V28.8337C27.5898 29.0462 26.5 29.4001 24.7562 29.4001C23.0117 29.4001 21.9202 29.0462 21.6718 28.8344Z" fill="#F55F44"/>
</svg>
