<svg width="40" height="40" viewBox="0 0 40 40" fill="none" xmlns="http://www.w3.org/2000/svg">
<circle opacity="0.1" cx="20" cy="20" r="20" fill="#DF18FF"/>
<g clip-path="url(#clip0_2_917)">
<path d="M19.7809 22.9718L19.8295 23.0593C19.8282 23.0599 19.827 23.0606 19.8257 23.0612L19.7809 22.9718ZM19.7809 22.9718C19.8108 22.9568 19.8408 22.9421 19.8707 22.9275L19.8683 22.9232L19.7809 22.9718ZM28.2882 22.4377C28.288 22.4376 28.2879 22.4375 28.2877 22.4375C27.6974 22.1974 27.2366 22.0012 26.9162 21.7335C26.6117 21.479 26.4326 21.158 26.4084 20.6563C26.6451 20.3532 26.7986 19.9772 26.8978 19.6432C26.9958 19.3136 27.0427 19.0183 27.0633 18.8613C27.4558 18.2466 27.6135 17.6203 27.5473 17.1883C27.8775 16.3913 27.6457 15.7436 27.4261 15.2303C27.2437 14.792 27.1121 14.4212 27.2809 13.9466L27.3906 13.6543L27.421 13.5734L27.3453 13.5317L27.0153 13.3495L27.0154 13.3493L27.0094 13.3465C25.8165 12.7872 24.4665 12.7086 23.4811 13.1249L23.4811 13.1248L23.4774 13.1265C22.8423 13.4253 22.3485 13.9123 22.1145 14.5877C21.7367 14.9026 21.5609 15.3617 21.5005 15.8212C21.4402 16.2796 21.4932 16.7493 21.5839 17.1051C21.478 17.5784 21.6742 18.2116 22.0676 18.8261C22.0882 18.9827 22.1351 19.278 22.2331 19.6077C22.3321 19.9412 22.4853 20.3167 22.7213 20.6195C22.6803 21.1226 22.5005 21.4443 22.2003 21.6987C21.8846 21.9662 21.433 22.1624 20.8432 22.4022L20.8273 22.4086C20.4663 22.5531 20.1018 22.6991 19.7361 22.8824L19.6428 22.9292L19.6935 23.0204L20.0604 23.6804L20.109 23.7677L20.1964 23.7193C20.4106 23.6004 20.6199 23.5152 20.8355 23.4274C20.9469 23.382 21.06 23.3359 21.1763 23.2842C21.7413 23.0655 22.3623 22.8218 22.8399 22.4057C23.3245 21.9836 23.6578 21.3879 23.6578 20.4788V20.3318V20.2904L23.6286 20.2611L23.5186 20.1511C23.3348 19.9673 23.2032 19.6749 23.1177 19.3825C23.0326 19.0916 22.9978 18.8169 22.9978 18.6818V18.5718V18.548L22.9871 18.5267L22.9501 18.4536L22.9508 18.4533L22.9441 18.4433C22.729 18.1206 22.6145 17.8549 22.5581 17.6598C22.5299 17.5621 22.5164 17.483 22.5119 17.4238C22.5077 17.3699 22.5115 17.3383 22.5144 17.3253L22.5835 17.1863L22.5999 17.1533L22.5909 17.1174L22.554 16.9705L22.5542 16.9704L22.5519 16.9633C22.4649 16.7021 22.4206 16.3407 22.4558 16.0063C22.4913 15.6683 22.6048 15.3847 22.8062 15.2446L22.9153 15.1721L22.9476 15.1507L22.957 15.1132L22.9936 14.9678C23.1331 14.4819 23.4069 14.1406 23.8894 13.9337L23.8895 13.9338L23.8928 13.9322C24.5387 13.6264 25.4281 13.6472 26.2688 13.9778C26.1823 14.5912 26.3669 15.0679 26.5437 15.491C26.5559 15.5252 26.568 15.5588 26.5799 15.5917C26.7489 16.0595 26.8734 16.404 26.6218 16.8747L26.6213 16.8744L26.6172 16.8848L26.5441 17.0678L26.5275 17.1094L26.5474 17.1494L26.6185 17.2923C26.6188 17.2942 26.6196 17.2985 26.6202 17.3059C26.6214 17.3208 26.6216 17.3428 26.6196 17.3719C26.6155 17.43 26.603 17.5109 26.5767 17.6115C26.5245 17.8119 26.4188 18.0864 26.223 18.4076L26.1505 18.5137L26.1331 18.5392V18.5701V18.6738C26.1144 18.8214 26.0783 19.0958 25.999 19.3822C25.9178 19.6756 25.7951 19.9667 25.6124 20.1494L25.5024 20.2594L25.4731 20.2887V20.3301V20.4771C25.4731 21.3861 25.8065 21.9818 26.291 22.404C26.7693 22.8207 27.3913 23.0645 27.957 23.2834C28.5285 23.5046 29.0441 23.7101 29.4373 24.0369C29.8038 24.3416 30.0671 24.7553 30.1538 25.4001H23.667H23.567V25.5001V26.2332V26.3332H23.667H31H31.1V26.2332V25.8662C31.1 24.7213 30.7041 23.9795 30.1466 23.465C29.595 22.9559 28.8906 22.6751 28.2882 22.4377Z" fill="#DF18FF" stroke="#DF18FF" stroke-width="0.2"/>
<path d="M20.528 20.2078C20.2099 20.0059 20.0004 19.6481 19.8478 19.1812C19.695 18.7136 19.6045 18.1537 19.5127 17.5654L19.5126 17.5644C19.5081 17.5379 19.5037 17.5112 19.4993 17.4845C19.3571 16.6287 19.1955 15.656 18.7585 14.8912C18.5317 14.4943 18.2292 14.1502 17.8149 13.906C17.4005 13.6616 16.8803 13.5208 16.2239 13.5208C15.1464 13.5208 14.5382 14.032 14.2297 14.3376C13.2622 14.5872 12.7582 15.1283 12.4968 15.7794C12.2405 16.4181 12.2198 17.1586 12.2017 17.808L12.2009 17.8342C12.2009 17.8343 12.2009 17.8345 12.2009 17.8346C12.1824 18.3506 12.1641 18.8344 12.0617 19.2485C11.9604 19.6584 11.7792 19.9889 11.4423 20.209L11.1154 20.3904L11.0205 20.443L11.0807 20.5333L11.3007 20.8633C11.8169 21.638 12.9646 22.3622 14.1528 22.7086C13.7443 23.862 12.7559 24.2426 11.6805 24.6366C11.0419 24.855 10.3455 25.0982 9.81117 25.5472C9.26958 26.0023 8.9 26.6633 8.9 27.7V28.0669V28.1669H9H22.933H23.033V28.0669V27.7C23.033 26.6633 22.6635 26.0025 22.127 25.5474C21.5975 25.0982 20.9104 24.8547 20.2909 24.6359C20.2749 24.63 20.2589 24.6242 20.243 24.6183C19.1834 24.2304 18.2198 23.8775 17.8172 22.708C19.0058 22.3617 20.153 21.6373 20.6701 20.8624L20.6702 20.8624L20.8902 20.5324L20.9504 20.4421L20.8555 20.3895L20.528 20.2078ZM21.4139 26.1714C21.7533 26.4178 21.993 26.74 22.0804 27.233H9.88561C9.97297 26.723 10.2132 26.4009 10.5523 26.1586C10.8986 25.9112 11.3468 25.7471 11.8564 25.5606C11.8931 25.5472 11.9302 25.5336 11.9675 25.5199L11.9679 25.5198C11.9824 25.5144 11.997 25.509 12.0116 25.5035C12.638 25.2708 13.3128 25.0201 13.8862 24.5843C14.4774 24.135 14.9584 23.4914 15.1837 22.4777L15.1837 22.4778L15.1842 22.4756L15.2572 22.1086L15.2767 22.0105L15.1786 21.991L14.8117 21.918L14.8117 21.918L14.8103 21.9177C13.8799 21.7457 12.8829 21.2081 12.3313 20.6619C12.6876 20.3065 12.8777 19.8643 12.9834 19.3976C13.0946 18.9066 13.1137 18.3808 13.1315 17.8925L13.1321 17.8758H13.1321L13.1321 17.8746C13.1507 17.1193 13.1882 16.5253 13.3807 16.0833C13.4756 15.8654 13.6077 15.6861 13.7942 15.5435C13.9813 15.4005 14.2279 15.2909 14.5563 15.2199L14.5565 15.2205L14.5671 15.2169L14.6771 15.18L14.6993 15.1725L14.7159 15.1559L14.789 15.0828L14.7895 15.0823C15.0411 14.8307 15.4197 14.4521 16.2213 14.4521C16.6591 14.4521 16.9999 14.5281 17.2715 14.6685C17.5423 14.8084 17.7508 15.0157 17.9192 15.2893C18.2602 15.8429 18.4319 16.6566 18.6157 17.7056C18.707 18.2725 18.7996 18.8474 18.9578 19.3681C19.106 19.8563 19.3138 20.3042 19.6385 20.6585C19.0876 21.2059 18.0885 21.7445 17.1561 21.9177L17.1561 21.9177L17.1548 21.918L16.7878 21.991L16.6898 22.0105L16.7093 22.1086L16.7823 22.4756L16.7824 22.476C16.989 23.491 17.4706 24.1351 18.0667 24.5845C18.6366 25.0141 19.3094 25.2639 19.9286 25.4938C19.952 25.5025 19.9754 25.5111 19.9986 25.5198L19.9991 25.5199L20.0071 25.5229C20.5578 25.7247 21.0443 25.9029 21.4139 26.1714Z" fill="#DF18FF" stroke="#DF18FF" stroke-width="0.2"/>
</g>
<defs>
<clipPath id="clip0_2_917">
<rect width="22" height="22" fill="white" transform="translate(9 9)"/>
</clipPath>
</defs>
</svg>
