<svg width="16" height="16" viewBox="0 0 16 16" fill="none" xmlns="http://www.w3.org/2000/svg">
<path d="M15.4532 7.43998L15.4519 7.4384C15.0398 6.92182 14.0948 5.82497 12.7977 4.85574C11.4992 3.88551 9.83826 3.03599 7.99962 3.03599C6.16098 3.03599 4.50005 3.88549 3.2016 4.8557C1.90284 5.82614 0.957097 6.92454 0.545758 7.44035C0.274765 7.7665 0.277188 8.23418 0.544772 8.57355L0.544765 8.57356L0.54558 8.57456C0.956235 9.08175 1.90223 10.1768 3.20166 11.1458C4.50006 12.114 6.16099 12.9635 7.99962 12.9635C9.83826 12.9635 11.4992 12.114 12.7976 11.1437C14.0966 10.173 15.0424 9.07425 15.4537 8.5582C15.7073 8.24932 15.707 7.7491 15.4532 7.43998ZM7.99962 11.756C6.48685 11.756 5.06801 11.0224 3.92936 10.1719C2.84495 9.36188 2.02496 8.45358 1.63345 7.99797C2.01619 7.5307 2.83622 6.62228 3.92299 5.81571C5.06345 4.96931 6.48651 4.24335 7.99962 4.24335C9.51268 4.24335 10.9316 4.96924 12.0701 5.81564C13.1556 6.62272 13.9761 7.5319 14.3661 7.99967C13.9761 8.4674 13.1556 9.37658 12.0701 10.1837C10.9316 11.0301 9.51267 11.756 7.99962 11.756Z" fill="#545F7D" stroke="#545F7D" stroke-width="0.2"/>
<path d="M8.00017 4.90806C6.29678 4.90806 4.90833 6.29657 4.90833 7.9999C4.90833 9.70322 6.29685 11.0917 8.00017 11.0917C9.70349 11.0917 11.092 9.70322 11.092 7.9999C11.092 6.29657 9.70349 4.90806 8.00017 4.90806ZM8.00017 9.88374C6.96729 9.88374 6.11649 9.03228 6.11649 8.00006C6.11649 6.96716 6.96735 6.11638 8.00017 6.11638C9.03299 6.11638 9.88385 6.96724 9.88385 8.00006C9.88385 9.03288 9.03299 9.88374 8.00017 9.88374Z" fill="#545F7D" stroke="#545F7D" stroke-width="0.2"/>
</svg>
