<svg width="22" height="24" viewBox="0 0 22 24" fill="none" xmlns="http://www.w3.org/2000/svg">
<path d="M17.7 12.691C17.7179 15.5176 18.8516 18.2235 20.8584 20.2184C21.0326 20.3913 21.0855 20.6531 20.9916 20.8804L20.9911 20.8815C20.8964 21.107 20.6759 21.2561 20.4284 21.2549M17.7 12.691L20.4289 21.0549M17.7 12.691V12.5968V10.6642C17.7176 9.12753 17.2153 7.63072 16.2749 6.41525C15.3983 5.28218 14.1891 4.45625 12.821 4.05096C13.2641 3.42356 13.3571 2.60325 13.0486 1.88439L13.0486 1.88427C12.6961 1.06445 11.8906 0.533337 10.9981 0.533337C10.1056 0.533337 9.30012 1.06445 8.94765 1.88427L8.9476 1.88439C8.63963 2.602 8.73176 3.42066 9.1729 4.04762C7.82495 4.42986 6.62763 5.22585 5.75332 6.32788C4.81213 7.51196 4.30019 8.97973 4.30019 10.4925L4.30019 12.5969L4.30019 12.5973C4.30717 15.4577 3.17061 18.2014 1.14179 20.2183C0.967447 20.3912 0.914516 20.6531 1.00848 20.8804L1.00891 20.8815C1.10367 21.1071 1.32413 21.2561 1.57166 21.2549M17.7 12.691L8.02202 21.2549M20.4284 21.2549C20.4282 21.2549 20.4279 21.2549 20.4277 21.2549L20.4289 21.0549M20.4284 21.2549H20.4289V21.0549M20.4284 21.2549H13.978M20.4289 21.0549H13.8111M13.978 21.2549C13.9898 21.1989 14.0001 21.1422 14.0088 21.0851L13.8111 21.0549M13.978 21.2549C13.6831 22.6549 12.4455 23.67 11 23.67C9.55453 23.67 8.31703 22.6549 8.02202 21.2549M13.978 21.2549H13.8111V21.0549M13.8111 21.0549L8.02202 21.2549M8.02202 21.2549H8.1889V21.0549L7.99119 21.0851C7.99993 21.1423 8.01022 21.1989 8.02202 21.2549ZM8.02202 21.2549H1.57166M1.57166 21.2549C1.57189 21.2549 1.57212 21.2549 1.57235 21.2549L1.57112 21.0549V21.2549H1.57166ZM12.7284 21.2549C12.4746 21.9799 11.7867 22.4798 11 22.4799H10.9999C10.2133 22.4798 9.52532 21.9799 9.27151 21.2549H12.7284ZM5.51227 10.4924L5.51227 10.4921C5.51031 8.98894 6.12472 7.55138 7.21234 6.5149L7.21243 6.51482C8.29974 5.47746 9.7642 4.9326 11.265 5.00474C12.6958 5.09329 14.0375 5.73144 15.0098 6.78409L15.0098 6.7841C15.9834 7.83803 16.5118 9.22531 16.4873 10.6596H16.4873V10.663L16.4873 12.5961C16.4873 12.5962 16.4873 12.5963 16.4873 12.5964C16.4785 15.3045 17.3943 17.9297 19.0742 20.0424H2.92536C4.60539 17.9296 5.52125 15.3045 5.51227 12.5964L5.51227 10.4924ZM11 1.75486C11.4118 1.75486 11.7836 2.00274 11.9415 2.38387C12.0986 2.76423 12.012 3.20229 11.7209 3.49445C11.4287 3.78555 10.9907 3.87213 10.6104 3.71516C10.2292 3.55724 9.98128 3.18538 9.98128 2.77361C9.98128 2.21072 10.4371 1.75486 11 1.75486Z" fill="#213F7D" stroke="#213F7D" stroke-width="0.4"/>
</svg>
