<svg width="26" height="26" viewBox="0 0 26 26" fill="none" xmlns="http://www.w3.org/2000/svg">
<path d="M19.7 13.691C19.7179 16.5176 20.8516 19.2234 22.8584 21.2183C23.0326 21.3912 23.0855 21.6531 22.9916 21.8803L22.9911 21.8814C22.8964 22.107 22.6759 22.256 22.4284 22.2548M19.7 13.691L22.4289 22.0548M19.7 13.691V13.5967V11.6641C19.7176 10.1275 19.2153 8.63066 18.2749 7.41518C17.3983 6.28212 16.1891 5.45619 14.821 5.0509C15.2641 4.4235 15.3571 3.60319 15.0486 2.88433L15.0486 2.88421C14.6961 2.06439 13.8906 1.53328 12.9981 1.53328C12.1056 1.53328 11.3001 2.06439 10.9476 2.88421L10.9476 2.88433C10.6396 3.60194 10.7318 4.4206 11.1729 5.04756C9.82495 5.4298 8.62763 6.22579 7.75332 7.32781C6.81213 8.5119 6.30019 9.97967 6.30019 11.4924L6.30019 13.5968L6.30019 13.5973C6.30717 16.4577 5.17061 19.2014 3.14179 21.2182C2.96745 21.3911 2.91452 21.653 3.00848 21.8804L3.00891 21.8814C3.10367 22.107 3.32413 22.2561 3.57166 22.2548M19.7 13.691L10.022 22.2548M22.4284 22.2548C22.4282 22.2548 22.4279 22.2548 22.4277 22.2548L22.4289 22.0548M22.4284 22.2548H22.4289V22.0548M22.4284 22.2548H15.978M22.4289 22.0548H15.8111M15.978 22.2548C15.9898 22.1988 16.0001 22.1422 16.0088 22.085L15.8111 22.0548M15.978 22.2548C15.6831 23.6549 14.4455 24.67 13 24.67C11.5545 24.67 10.317 23.6548 10.022 22.2548M15.978 22.2548H15.8111V22.0548M15.8111 22.0548L10.022 22.2548M10.022 22.2548H10.1889V22.0548L9.99119 22.085C9.99993 22.1422 10.0102 22.1988 10.022 22.2548ZM10.022 22.2548H3.57166M3.57166 22.2548C3.57189 22.2548 3.57212 22.2548 3.57235 22.2548L3.57112 22.0548V22.2548H3.57166ZM14.7284 22.2548C14.4746 22.9798 13.7867 23.4798 13 23.4798H12.9999C12.2133 23.4798 11.5253 22.9798 11.2715 22.2548H14.7284ZM7.51227 11.4923L7.51227 11.4921C7.51031 9.98888 8.12472 8.55132 9.21234 7.51484L9.21243 7.51476C10.2997 6.4774 11.7642 5.93254 13.265 6.00468C14.6958 6.09323 16.0375 6.73138 17.0098 7.78403L17.0098 7.78404C17.9834 8.83797 18.5118 10.2252 18.4873 11.6596H18.4873V11.663L18.4873 13.5961C18.4873 13.5962 18.4873 13.5963 18.4873 13.5964C18.4785 16.3044 19.3943 18.9296 21.0742 21.0423H4.92536C6.60539 18.9295 7.52125 16.3044 7.51227 13.5964L7.51227 11.4923ZM13 2.7548C13.4118 2.7548 13.7836 3.00268 13.9415 3.38381C14.0986 3.76417 14.012 4.20223 13.7209 4.49439C13.4287 4.78549 12.9907 4.87206 12.6104 4.7151C12.2292 4.55718 11.9813 4.18532 11.9813 3.77355C11.9813 3.21066 12.4371 2.7548 13 2.7548Z" fill="#213F7D" stroke="#213F7D" stroke-width="0.4"/>
</svg>
