<svg width="26" height="26" viewBox="0 0 26 26" fill="none" xmlns="http://www.w3.org/2000/svg">
<path d="M19.7 13.691C19.7179 16.5176 20.8516 19.2235 22.8584 21.2184C23.0326 21.3913 23.0855 21.6531 22.9916 21.8804L22.9911 21.8815C22.8964 22.107 22.6759 22.2561 22.4284 22.2549M19.7 13.691L22.4289 22.0549M19.7 13.691V13.5968V11.6642C19.7176 10.1275 19.2153 8.63072 18.2749 7.41525C17.3983 6.28218 16.1891 5.45625 14.821 5.05096C15.2641 4.42356 15.3571 3.60325 15.0486 2.88439L15.0486 2.88427C14.6961 2.06445 13.8906 1.53334 12.9981 1.53334C12.1056 1.53334 11.3001 2.06445 10.9476 2.88427L10.9476 2.88439C10.6396 3.602 10.7318 4.42066 11.1729 5.04762C9.82495 5.42986 8.62763 6.22585 7.75332 7.32788C6.81213 8.51196 6.30019 9.97973 6.30019 11.4925L6.30019 13.5969L6.30019 13.5973C6.30717 16.4577 5.17061 19.2014 3.14179 21.2183C2.96745 21.3912 2.91452 21.6531 3.00848 21.8804L3.00891 21.8815C3.10367 22.1071 3.32413 22.2561 3.57166 22.2549M19.7 13.691L10.022 22.2549M22.4284 22.2549C22.4282 22.2549 22.4279 22.2549 22.4277 22.2549L22.4289 22.0549M22.4284 22.2549H22.4289V22.0549M22.4284 22.2549H15.978M22.4289 22.0549H15.8111M15.978 22.2549C15.9898 22.1989 16.0001 22.1422 16.0088 22.0851L15.8111 22.0549M15.978 22.2549C15.6831 23.6549 14.4455 24.67 13 24.67C11.5545 24.67 10.317 23.6549 10.022 22.2549M15.978 22.2549H15.8111V22.0549M15.8111 22.0549L10.022 22.2549M10.022 22.2549H10.1889V22.0549L9.99119 22.0851C9.99993 22.1423 10.0102 22.1989 10.022 22.2549ZM10.022 22.2549H3.57166M3.57166 22.2549C3.57189 22.2549 3.57212 22.2549 3.57235 22.2549L3.57112 22.0549V22.2549H3.57166ZM14.7284 22.2549C14.4746 22.9799 13.7867 23.4798 13 23.4799H12.9999C12.2133 23.4798 11.5253 22.9799 11.2715 22.2549H14.7284ZM7.51227 11.4924L7.51227 11.4921C7.51031 9.98894 8.12472 8.55138 9.21234 7.5149L9.21243 7.51482C10.2997 6.47746 11.7642 5.9326 13.265 6.00474C14.6958 6.09329 16.0375 6.73144 17.0098 7.78409L17.0098 7.7841C17.9834 8.83803 18.5118 10.2253 18.4873 11.6596H18.4873V11.663L18.4873 13.5961C18.4873 13.5962 18.4873 13.5963 18.4873 13.5964C18.4785 16.3045 19.3943 18.9297 21.0742 21.0424H4.92536C6.60539 18.9296 7.52125 16.3045 7.51227 13.5964L7.51227 11.4924ZM13 2.75486C13.4118 2.75486 13.7836 3.00274 13.9415 3.38387C14.0986 3.76423 14.012 4.20229 13.7209 4.49445C13.4287 4.78555 12.9907 4.87213 12.6104 4.71516C12.2292 4.55724 11.9813 4.18538 11.9813 3.77361C11.9813 3.21072 12.4371 2.75486 13 2.75486Z" fill="#213F7D" stroke="#213F7D" stroke-width="0.4"/>
</svg>
